<?xml version="1.0" standalone="no"?><!DOCTYPE svg PUBLIC "-//W3C//DTD SVG 1.1//EN" "http://www.w3.org/Graphics/SVG/1.1/DTD/svg11.dtd"><svg t="1677008245343" class="icon" viewBox="0 0 1024 1024" version="1.1" xmlns="http://www.w3.org/2000/svg" p-id="11006" xmlns:xlink="http://www.w3.org/1999/xlink" width="200" height="200"><path d="M120 898.896a381.336 81.488 0 1 0 762.672 0 381.336 81.488 0 1 0-762.672 0Z" fill="#B8CBCD" p-id="11007"></path><path d="M620.344 685.016l-56.568 56.568c-11.648 11.648-15.504 29.296-12.704 49.696-61.28-32.504-122.88-77.808-179.632-134.544-56.744-56.752-102.04-118.352-134.552-179.632 20.4 2.8 38.048-1.056 49.696-12.704l56.568-56.568c29.68-29.68 9.416-98.064-45.256-152.736S174.848 180.16 145.168 209.84l-56.568 56.56c-8.016 8.016-12.272 18.912-13.312 31.536-50.968 121.152 18.224 318.456 177.36 477.584 159.136 159.144 356.44 228.328 477.576 177.36 12.624-1.04 23.528-5.296 31.536-13.304l56.568-56.568c29.68-29.68 9.416-98.064-45.256-152.736s-123.048-74.936-152.728-45.256z" fill="#B9E3ED" p-id="11008" data-spm-anchor-id="a313x.7781069.0.i2" class="selected"></path><path d="M641.304 993.4c-0.008 0-0.008 0 0 0-128.2 0-279.832-75.112-405.624-200.904C73.56 630.384-1.592 425.288 51.784 292.008c2.152-17.032 8.968-31.688 19.84-42.568l56.576-56.56c13.536-13.536 32.384-20.704 54.504-20.704 41.464 0 90.872 24.656 132.16 65.952 65.024 65.024 84.904 147.024 45.256 186.672l-56.56 56.568a67.856 67.856 0 0 1-27.256 16.512c30.144 49.68 68.416 98.184 112.112 141.88 43.664 43.664 92.152 81.928 141.816 112.072a67.696 67.696 0 0 1 16.576-27.216l56.568-56.568c13.536-13.536 32.384-20.696 54.504-20.696 41.464 0 90.872 24.656 132.168 65.952 29.224 29.216 50.64 63.272 60.304 95.888 11.168 37.68 5.824 69.912-15.048 90.784l-56.56 56.568c-10.888 10.872-25.544 17.688-42.576 19.84-28.192 11.296-60.088 17.016-94.864 17.016zM182.704 220.168c-9.24 0-16.168 2.232-20.568 6.64l-56.568 56.56c-3.616 3.616-5.752 9.176-6.36 16.536a24 24 0 0 1-1.8 7.336C49.52 421.08 121.944 610.88 269.616 758.552c115.248 115.248 257.664 186.84 371.68 186.84 29.744 0 56.536-4.92 79.624-14.64 2.336-0.976 4.816-1.584 7.344-1.8 7.36-0.6 12.928-2.744 16.544-6.36l56.552-56.56c15.36-15.36 5.568-67.976-45.248-118.8-31.528-31.52-70.088-51.888-98.232-51.888-9.24 0-16.16 2.232-20.56 6.632l-56.568 56.568c-7.6 7.6-6.96 21.728-5.896 29.472a23.992 23.992 0 1 1-35.024 24.456c-64.888-34.432-128.984-82.416-185.352-138.784-56.376-56.376-104.36-120.472-138.784-185.352a24.008 24.008 0 0 1 24.464-35.032c13.384 1.848 23.792-0.216 29.472-5.888l56.56-56.568c7.616-7.616 8.728-23.768 2.968-43.208-7.32-24.712-24.896-52.264-48.216-75.584-31.536-31.512-70.088-51.888-98.24-51.888z" fill="#324654" p-id="11009"></path><path d="M668.152 966.568c-124.696 0.008-278.392-73.664-405.64-200.912C100.4 603.544 25.248 398.448 78.616 265.168c2.152-17.04 8.968-31.688 19.84-42.568l56.576-56.56a24 24 0 1 1 33.936 33.936l-56.568 56.56c-3.616 3.616-5.752 9.176-6.36 16.536a24 24 0 0 1-1.8 7.336C76.352 394.24 148.776 584.048 296.456 731.72c147.672 147.68 337.472 220.136 451.304 172.2 2.336-0.976 4.816-1.584 7.344-1.8 7.36-0.6 12.928-2.744 16.544-6.36l56.552-56.56a24 24 0 0 1 33.952 33.936l-56.568 56.568c-10.888 10.872-25.544 17.688-42.576 19.84-28.68 11.488-60.688 17.024-94.856 17.024z" fill="#324654" p-id="11010"></path><path d="M317.696 449.288a16 16 0 0 1-11.312-27.312c9.864-9.864 11.68-28.512 4.976-51.144-7.8-26.336-25.64-54.376-50.232-78.968s-52.64-42.432-78.976-50.232c-22.632-6.704-41.272-4.896-51.136 4.976a16 16 0 1 1-22.624-22.624c18.688-18.704 48.136-23.32 82.848-13.032 31.36 9.288 64.216 29.992 92.512 58.288 28.296 28.288 48.992 61.144 58.288 92.504 10.288 34.736 5.664 64.16-13.032 82.848-3.12 3.136-7.216 4.696-11.312 4.696zM792.872 924.464a16 16 0 0 1-11.312-27.312c9.872-9.864 11.688-28.504 4.984-51.144-7.808-26.336-25.648-54.376-50.232-78.968-24.592-24.584-52.64-42.432-78.976-50.232-22.624-6.696-41.264-4.88-51.136 4.976a16 16 0 1 1-22.624-22.624c36.472-36.48 113.504-16.6 175.36 45.256 28.296 28.288 49 61.152 58.288 92.504 10.296 34.736 5.664 64.16-13.032 82.856-3.128 3.12-7.224 4.688-11.32 4.688z" fill="#FFFFFF" p-id="11011"></path><path d="M305.688 437.376c-38.08 0-85.648-22.544-126.584-63.488-28.296-28.288-49-61.144-58.288-92.504-10.288-34.736-5.656-64.152 13.032-82.848a16 16 0 1 1 22.624 22.624c-9.864 9.864-11.688 28.504-4.976 51.144 7.8 26.336 25.64 54.376 50.232 78.968 24.592 24.584 52.64 42.432 78.976 50.224 22.624 6.72 41.264 4.888 51.136-4.976a16 16 0 1 1 22.624 22.624c-12.328 12.336-29.312 18.224-48.776 18.232zM780.872 912.544c-38.072 0.008-85.656-22.544-126.584-63.488-61.856-61.848-81.736-138.88-45.256-175.36a16 16 0 1 1 22.624 22.624c-9.864 9.864-11.68 28.504-4.976 51.144 7.808 26.336 25.64 54.376 50.232 78.968 24.592 24.584 52.64 42.432 78.976 50.232 22.624 6.696 41.264 4.888 51.136-4.976a16 16 0 1 1 22.624 22.624c-12.336 12.344-29.32 18.232-48.776 18.232z" fill="#324654" p-id="11012"></path><path d="M254.84 488.448c-10.584 0-22.04-1.776-34.136-5.36-31.36-9.288-64.216-29.992-92.512-58.288-61.856-61.848-81.736-138.88-45.256-175.36a16 16 0 1 1 22.624 22.624c-9.864 9.864-11.68 28.504-4.976 51.144 7.808 26.336 25.64 54.376 50.232 78.968 24.592 24.592 52.64 42.432 78.976 50.232 22.632 6.704 41.272 4.896 51.136-4.976a16 16 0 1 1 22.624 22.624c-12.176 12.176-28.912 18.392-48.712 18.392zM730.016 963.624c-10.584 0-22.032-1.776-34.136-5.36-31.36-9.288-64.216-29.992-92.504-58.288-28.296-28.288-48.992-61.152-58.288-92.504-10.296-34.736-5.664-64.16 13.032-82.848a16 16 0 1 1 22.624 22.624c-9.864 9.864-11.68 28.504-4.976 51.144 7.808 26.336 25.648 54.376 50.232 78.968 24.592 24.584 52.64 42.432 78.976 50.232 22.624 6.704 41.272 4.888 51.136-4.984a16 16 0 0 1 22.64 22.624c-12.2 12.184-28.936 18.392-48.736 18.392zM878.496 733.424a24 24 0 0 1-19.728-37.632C904.056 630.176 928 553.272 928 473.4c0-216.152-175.848-392-392-392-83.656 0-163.52 26.056-230.976 75.344a24 24 0 1 1-28.32-38.744C352.432 62.648 442.096 33.4 536 33.4c242.616 0 440 197.384 440 440 0 89.664-26.88 175.992-77.736 249.656a23.96 23.96 0 0 1-19.768 10.368z" fill="#324654" p-id="11013"></path><path d="M877.456 733.432a24.032 24.032 0 0 1-23.2-17.912l-24.408-93.016a24 24 0 0 1 17.12-29.304 23.984 23.984 0 0 1 29.312 17.12l18.32 69.808 64.328-16.872a23.992 23.992 0 1 1 12.176 46.424l-87.544 22.968a24.72 24.72 0 0 1-6.104 0.784zM582.12 553.4H446.304v-16c0-31.52 28.872-57.96 59.44-85.96 25.336-23.208 54.064-49.512 54.064-71.688 0-28.112-23.832-40.752-40.752-40.752-14.144 0-47.064 4.584-47.064 47.064a16 16 0 0 1-32 0c0-58.36 42.592-79.064 79.064-79.064 35.76 0 72.752 27.208 72.752 72.752 0 36.256-32.768 66.264-64.456 95.288-16.536 15.152-34.664 31.744-43.536 46.36h98.296a16 16 0 0 1 0.008 32z" fill="#324654" p-id="11014"></path><path d="M712 553.4a16 16 0 0 1-16-16v-48H616a15.992 15.992 0 1 1-13.528-24.544l96-152A16 16 0 1 1 728 321.4v136h32a16 16 0 0 1 0 32h-32v48a16 16 0 0 1-16 16z m-66.976-96H696V376.696l-50.976 80.704zM641.304 993.4c-0.008 0-0.008 0 0 0-128.2 0-279.832-75.112-405.624-200.904C73.56 630.384-1.592 425.288 51.784 292.008c2.152-17.032 8.968-31.688 19.84-42.568l56.576-56.56c13.536-13.536 32.384-20.704 54.504-20.704 41.464 0 90.872 24.656 132.16 65.952 65.024 65.024 84.904 147.024 45.256 186.672l-56.56 56.568a67.856 67.856 0 0 1-27.256 16.512c30.144 49.68 68.416 98.184 112.112 141.88 43.664 43.664 92.152 81.928 141.816 112.072a67.696 67.696 0 0 1 16.576-27.216l56.568-56.568c13.536-13.536 32.384-20.696 54.504-20.696 41.464 0 90.872 24.656 132.168 65.952 29.224 29.216 50.64 63.272 60.304 95.888 11.168 37.68 5.824 69.912-15.048 90.784l-56.56 56.568c-10.888 10.872-25.544 17.688-42.576 19.84-28.192 11.296-60.088 17.016-94.864 17.016zM182.704 220.168c-9.24 0-16.168 2.232-20.568 6.64l-56.568 56.56c-3.616 3.616-5.752 9.176-6.36 16.536a24 24 0 0 1-1.8 7.336C49.52 421.08 121.944 610.88 269.616 758.552c115.248 115.248 257.664 186.84 371.68 186.84 29.744 0 56.536-4.92 79.624-14.64 2.336-0.976 4.816-1.584 7.344-1.8 7.36-0.6 12.928-2.744 16.544-6.36l56.552-56.56c15.36-15.36 5.568-67.976-45.248-118.8-31.528-31.52-70.088-51.888-98.232-51.888-9.24 0-16.16 2.232-20.56 6.632l-56.568 56.568c-7.6 7.6-6.96 21.728-5.896 29.472a23.992 23.992 0 1 1-35.024 24.456c-64.888-34.432-128.984-82.416-185.352-138.784-56.376-56.376-104.36-120.472-138.784-185.352a24.008 24.008 0 0 1 24.464-35.032c13.384 1.848 23.792-0.216 29.472-5.888l56.56-56.568c7.616-7.616 8.728-23.768 2.968-43.208-7.32-24.712-24.896-52.264-48.216-75.584-31.536-31.512-70.088-51.888-98.24-51.888z" fill="#324654" p-id="11015"></path></svg>